<svg xmlns="http://www.w3.org/2000/svg" xmlns:xlink="http://www.w3.org/1999/xlink" width="522" zoomAndPan="magnify" viewBox="0 0 391.5 213" height="284" preserveAspectRatio="xMidYMid meet" version="1.0"><defs><clipPath id="568dcd1c73"><path d="M 138.636719 53.445312 L 139.957031 53.445312 L 139.957031 55.960938 L 138.636719 55.960938 Z M 138.636719 53.445312 " clip-rule="nonzero"/></clipPath><clipPath id="9571dc08bb"><path d="M 139.949219 54.058594 C 139.664062 55.910156 139.277344 55.992188 139.09375 55.910156 C 138.910156 55.847656 138.707031 55.460938 138.707031 55.277344 C 138.707031 55.097656 138.890625 54.871094 139.03125 54.789062 C 139.195312 54.710938 139.460938 54.710938 139.621094 54.789062 C 139.765625 54.871094 139.929688 55.097656 139.949219 55.277344 C 139.96875 55.441406 139.867188 55.707031 139.722656 55.808594 C 139.601562 55.929688 139.316406 55.992188 139.15625 55.929688 C 138.972656 55.867188 138.789062 55.605469 138.707031 55.339844 C 138.585938 54.933594 138.625 53.914062 138.871094 53.652344 C 139.011719 53.46875 139.359375 53.40625 139.542969 53.46875 C 139.722656 53.550781 139.949219 54.058594 139.949219 54.058594 " clip-rule="nonzero"/></clipPath><clipPath id="8785d87258"><path d="M 0.636719 0.445312 L 1.957031 0.445312 L 1.957031 2.960938 L 0.636719 2.960938 Z M 0.636719 0.445312 " clip-rule="nonzero"/></clipPath><clipPath id="59a5df7d31"><path d="M 1.949219 1.058594 C 1.664062 2.910156 1.277344 2.992188 1.09375 2.910156 C 0.910156 2.847656 0.707031 2.460938 0.707031 2.277344 C 0.707031 2.097656 0.890625 1.871094 1.03125 1.789062 C 1.195312 1.710938 1.460938 1.710938 1.621094 1.789062 C 1.765625 1.871094 1.929688 2.097656 1.949219 2.277344 C 1.96875 2.441406 1.867188 2.707031 1.722656 2.808594 C 1.601562 2.929688 1.316406 2.992188 1.15625 2.929688 C 0.972656 2.867188 0.789062 2.605469 0.707031 2.339844 C 0.585938 1.933594 0.625 0.914062 0.871094 0.652344 C 1.011719 0.46875 1.359375 0.40625 1.542969 0.46875 C 1.722656 0.550781 1.949219 1.058594 1.949219 1.058594 " clip-rule="nonzero"/></clipPath><clipPath id="94b73fdb11"><rect x="0" width="2" y="0" height="3"/></clipPath><clipPath id="be58e507c0"><path d="M 0 0.136719 L 391 0.136719 L 391 212.863281 L 0 212.863281 Z M 0 0.136719 " clip-rule="nonzero"/></clipPath></defs><g clip-path="url(#568dcd1c73)"><g clip-path="url(#9571dc08bb)"><g transform="matrix(1, 0, 0, 1, 138, 53)"><g clip-path="url(#94b73fdb11)"><g clip-path="url(#8785d87258)"><g clip-path="url(#59a5df7d31)"><rect x="-224.13" width="563.76" fill="#000000" height="306.72" y="-99.86" fill-opacity="1"/></g></g></g></g></g></g><g clip-path="url(#be58e507c0)"><path fill="#000000" d="M 180.25 2.195312 C 180.046875 2.917969 179.648438 14.882812 179.363281 28.785156 C 179.078125 42.691406 178.597656 54.066406 178.292969 54.066406 C 177.984375 54.066406 165.824219 48.492188 151.269531 41.679688 C 136.714844 34.867188 124.28125 29.394531 123.636719 29.519531 C 122.605469 29.71875 122.46875 32.886719 122.46875 56.882812 L 122.46875 84.023438 L 151.152344 97.625 C 170.070312 106.59375 180.089844 110.972656 180.578125 110.484375 C 181.019531 110.042969 181.507812 99.128906 181.789062 83.449219 L 182.257812 57.152344 L 193.933594 50.996094 C 200.355469 47.609375 209.152344 42.964844 213.476562 40.667969 C 218.46875 38.023438 223.460938 35.378906 228.457031 32.738281 C 239.621094 26.835938 240.542969 27.777344 209.359375 13.179688 C 194.9375 6.429688 182.574219 0.90625 181.878906 0.898438 C 181.1875 0.890625 180.453125 1.476562 180.25 2.195312 M 123.121094 145.023438 C 114.742188 146.929688 109.015625 150.894531 106.046875 156.847656 C 102.527344 163.917969 103.941406 172.609375 109.355469 177.164062 C 114.765625 181.714844 118.808594 183.023438 134.148438 185.183594 C 146.378906 186.90625 149.359375 188.027344 150.507812 191.324219 C 153.242188 199.164062 139.777344 205.542969 127.828125 202.070312 C 122.671875 200.570312 119.386719 197.789062 118.015625 193.761719 L 116.992188 190.765625 L 109.324219 190.550781 L 101.65625 190.339844 L 102.117188 194.253906 C 102.75 199.589844 105.847656 204.367188 110.882812 207.765625 C 117.394531 212.164062 122.070312 213.082031 136.027344 212.703125 C 149.105469 212.347656 153.316406 211.300781 159.417969 206.878906 C 167.5625 200.980469 169.351562 189.136719 163.347656 180.851562 C 159.761719 175.902344 155.238281 174.199219 140.015625 172.074219 C 132.792969 171.066406 126.058594 169.929688 125.050781 169.542969 C 120.28125 167.722656 118.75 162.117188 122.058594 158.597656 C 124.914062 155.554688 129.605469 154.152344 135.183594 154.675781 C 143.179688 155.421875 147.347656 158.53125 148.433594 164.550781 C 148.675781 165.910156 149.378906 166.070312 156.011719 166.261719 C 164.609375 166.515625 164.777344 166.359375 162.917969 159.910156 C 161.121094 153.675781 155.636719 148.421875 148.566406 146.160156 C 142.042969 144.078125 129.714844 143.527344 123.121094 145.023438 M 0 178.40625 L 0 212.113281 L 13.484375 212.113281 L 13.484375 144.703125 L 0 144.703125 Z M 28.464844 178.40625 L 28.464844 212.113281 L 43.445312 212.113281 L 43.445312 157.433594 L 80.148438 157.433594 L 80.148438 212.113281 L 95.128906 212.113281 L 95.128906 144.703125 L 28.464844 144.703125 Z M 173.777344 178.40625 L 173.777344 212.113281 L 188.757812 212.113281 L 188.757812 144.703125 L 173.777344 144.703125 Z M 202.992188 178.40625 L 202.992188 212.113281 L 221.902344 212.101562 C 242.507812 212.089844 248.1875 211.386719 255.121094 207.992188 C 260.386719 205.417969 266.195312 199.386719 269.105469 193.472656 C 271.476562 188.652344 271.527344 188.328125 271.527344 178.382812 L 271.527344 168.214844 L 268.703125 162.5 C 265.585938 156.191406 261.269531 151.792969 255.148438 148.683594 C 248.652344 145.386719 243.210938 144.726562 222.277344 144.714844 L 202.992188 144.703125 Z M 304.554688 145.933594 C 290.972656 148.84375 281.871094 158.023438 279.457031 171.242188 C 276.449219 187.699219 282.222656 201.828125 294.496094 208.0625 C 309.167969 215.515625 331.839844 213.582031 341.839844 204.023438 C 344.746094 201.246094 348.285156 194.90625 348.296875 192.453125 C 348.304688 191.300781 347.492188 191.140625 341.65625 191.140625 C 335.039062 191.140625 335 191.152344 334.113281 193.289062 C 332.835938 196.371094 329.039062 199.789062 324.710938 201.75 C 319.566406 204.082031 309.78125 204.152344 304.824219 201.898438 C 297.984375 198.789062 293.164062 192.515625 291.8125 184.960938 L 291.308594 182.152344 L 349.804688 182.152344 L 349.804688 177.066406 C 349.804688 171.777344 348.363281 164.976562 346.335938 160.703125 C 340.488281 148.382812 322.609375 142.0625 304.554688 145.933594 M 355.796875 178.40625 L 355.796875 212.113281 L 370.777344 212.113281 L 370.777344 155.1875 L 391 155.1875 L 391 144.703125 L 355.796875 144.703125 Z M 307.480469 154.738281 C 300.335938 156.996094 295.425781 161.507812 293.289062 167.769531 C 291.308594 173.582031 289.691406 173.164062 314.222656 173.164062 L 336.320312 173.164062 L 336.3125 170.730469 C 336.300781 166.746094 333.066406 160.796875 329.511719 158.222656 C 323.695312 154.007812 314.425781 152.542969 307.480469 154.738281 M 218.71875 178.40625 L 218.71875 200.128906 L 228.804688 200.128906 C 241.027344 200.128906 245.472656 198.835938 249.832031 194.011719 C 254.101562 189.285156 255.578125 185.21875 255.609375 178.121094 C 255.640625 170.519531 253.625 165.316406 249.171875 161.503906 C 244.734375 157.707031 240.394531 156.6875 228.695312 156.6875 L 218.71875 156.6875 Z M 218.71875 178.40625 " fill-opacity="1" fill-rule="evenodd"/></g></svg>